<svg width="115" height="40" viewBox="0 0 115 40" fill="none" xmlns="http://www.w3.org/2000/svg">
<path d="M44.8582 25V14.5H46.4632L51.0532 22.165H50.2132L54.7282 14.5H56.3332L56.3482 25H54.5032L54.4882 17.395H54.8782L51.0382 23.8H50.1682L46.2682 17.395H46.7182V25H44.8582ZM59.6644 28.015C59.2744 28.015 58.8844 27.95 58.4944 27.82C58.1044 27.69 57.7794 27.51 57.5194 27.28L58.2694 25.9C58.4594 26.07 58.6744 26.205 58.9144 26.305C59.1544 26.405 59.3994 26.455 59.6494 26.455C59.9894 26.455 60.2644 26.37 60.4744 26.2C60.6844 26.03 60.8794 25.745 61.0594 25.345L61.5244 24.295L61.6744 24.07L64.7044 16.99H66.5044L62.7544 25.645C62.5044 26.245 62.2244 26.72 61.9144 27.07C61.6144 27.42 61.2744 27.665 60.8944 27.805C60.5244 27.945 60.1144 28.015 59.6644 28.015ZM61.3144 25.285L57.6994 16.99H59.6494L62.5894 23.905L61.3144 25.285ZM71.038 25.15C70.218 25.15 69.433 25.035 68.683 24.805C67.933 24.565 67.338 24.26 66.898 23.89L67.573 22.375C67.993 22.705 68.513 22.98 69.133 23.2C69.753 23.42 70.388 23.53 71.038 23.53C71.588 23.53 72.033 23.47 72.373 23.35C72.713 23.23 72.963 23.07 73.123 22.87C73.283 22.66 73.363 22.425 73.363 22.165C73.363 21.845 73.248 21.59 73.018 21.4C72.788 21.2 72.488 21.045 72.118 20.935C71.758 20.815 71.353 20.705 70.903 20.605C70.463 20.505 70.018 20.39 69.568 20.26C69.128 20.12 68.723 19.945 68.353 19.735C67.993 19.515 67.698 19.225 67.468 18.865C67.238 18.505 67.123 18.045 67.123 17.485C67.123 16.915 67.273 16.395 67.573 15.925C67.883 15.445 68.348 15.065 68.968 14.785C69.598 14.495 70.393 14.35 71.353 14.35C71.983 14.35 72.608 14.43 73.228 14.59C73.848 14.75 74.388 14.98 74.848 15.28L74.233 16.795C73.763 16.515 73.278 16.31 72.778 16.18C72.278 16.04 71.798 15.97 71.338 15.97C70.798 15.97 70.358 16.035 70.018 16.165C69.688 16.295 69.443 16.465 69.283 16.675C69.133 16.885 69.058 17.125 69.058 17.395C69.058 17.715 69.168 17.975 69.388 18.175C69.618 18.365 69.913 18.515 70.273 18.625C70.643 18.735 71.053 18.845 71.503 18.955C71.953 19.055 72.398 19.17 72.838 19.3C73.288 19.43 73.693 19.6 74.053 19.81C74.423 20.02 74.718 20.305 74.938 20.665C75.168 21.025 75.283 21.48 75.283 22.03C75.283 22.59 75.128 23.11 74.818 23.59C74.518 24.06 74.053 24.44 73.423 24.73C72.793 25.01 71.998 25.15 71.038 25.15ZM81.9716 25V23.38L81.8666 23.035V20.2C81.8666 19.65 81.7016 19.225 81.3716 18.925C81.0416 18.615 80.5416 18.46 79.8716 18.46C79.4216 18.46 78.9766 18.53 78.5366 18.67C78.1066 18.81 77.7416 19.005 77.4416 19.255L76.7066 17.89C77.1366 17.56 77.6466 17.315 78.2366 17.155C78.8366 16.985 79.4566 16.9 80.0966 16.9C81.2566 16.9 82.1516 17.18 82.7816 17.74C83.4216 18.29 83.7416 19.145 83.7416 20.305V25H81.9716ZM79.4516 25.105C78.8516 25.105 78.3266 25.005 77.8766 24.805C77.4266 24.595 77.0766 24.31 76.8266 23.95C76.5866 23.58 76.4666 23.165 76.4666 22.705C76.4666 22.255 76.5716 21.85 76.7816 21.49C77.0016 21.13 77.3566 20.845 77.8466 20.635C78.3366 20.425 78.9866 20.32 79.7966 20.32H82.1216V21.565H79.9316C79.2916 21.565 78.8616 21.67 78.6416 21.88C78.4216 22.08 78.3116 22.33 78.3116 22.63C78.3116 22.97 78.4466 23.24 78.7166 23.44C78.9866 23.64 79.3616 23.74 79.8416 23.74C80.3016 23.74 80.7116 23.635 81.0716 23.425C81.4416 23.215 81.7066 22.905 81.8666 22.495L82.1816 23.62C82.0016 24.09 81.6766 24.455 81.2066 24.715C80.7466 24.975 80.1616 25.105 79.4516 25.105ZM86.403 25V16.54C86.403 15.7 86.648 15.03 87.138 14.53C87.638 14.02 88.348 13.765 89.268 13.765C89.598 13.765 89.908 13.8 90.198 13.87C90.498 13.94 90.748 14.05 90.948 14.2L90.438 15.61C90.298 15.5 90.138 15.42 89.958 15.37C89.778 15.31 89.593 15.28 89.403 15.28C89.013 15.28 88.718 15.39 88.518 15.61C88.318 15.82 88.218 16.14 88.218 16.57V17.47L88.278 18.31V25H86.403ZM85.083 18.55V17.05H90.423V18.55H85.083ZM95.3329 25.105C94.4429 25.105 93.6629 24.93 92.9929 24.58C92.3329 24.22 91.8179 23.73 91.4479 23.11C91.0879 22.49 90.9079 21.785 90.9079 20.995C90.9079 20.195 91.0829 19.49 91.4329 18.88C91.7929 18.26 92.2829 17.775 92.9029 17.425C93.5329 17.075 94.2479 16.9 95.0479 16.9C95.8279 16.9 96.5229 17.07 97.1329 17.41C97.7429 17.75 98.2229 18.23 98.5729 18.85C98.9229 19.47 99.0979 20.2 99.0979 21.04C99.0979 21.12 99.0929 21.21 99.0829 21.31C99.0829 21.41 99.0779 21.505 99.0679 21.595H92.3929V20.35H98.0779L97.3429 20.74C97.3529 20.28 97.2579 19.875 97.0579 19.525C96.8579 19.175 96.5829 18.9 96.2329 18.7C95.8929 18.5 95.4979 18.4 95.0479 18.4C94.5879 18.4 94.1829 18.5 93.8329 18.7C93.4929 18.9 93.2229 19.18 93.0229 19.54C92.8329 19.89 92.7379 20.305 92.7379 20.785V21.085C92.7379 21.565 92.8479 21.99 93.0679 22.36C93.2879 22.73 93.5979 23.015 93.9979 23.215C94.3979 23.415 94.8579 23.515 95.3779 23.515C95.8279 23.515 96.2329 23.445 96.5929 23.305C96.9529 23.165 97.2729 22.945 97.5529 22.645L98.5579 23.8C98.1979 24.22 97.7429 24.545 97.1929 24.775C96.6529 24.995 96.0329 25.105 95.3329 25.105ZM103.914 25.105C103.034 25.105 102.354 24.88 101.874 24.43C101.394 23.97 101.154 23.295 101.154 22.405V15.22H103.029V22.36C103.029 22.74 103.124 23.035 103.314 23.245C103.514 23.455 103.789 23.56 104.139 23.56C104.559 23.56 104.909 23.45 105.189 23.23L105.714 24.565C105.494 24.745 105.224 24.88 104.904 24.97C104.584 25.06 104.254 25.105 103.914 25.105ZM99.8339 18.55V17.05H105.174V18.55H99.8339ZM107.77 28.015C107.38 28.015 106.99 27.95 106.6 27.82C106.21 27.69 105.885 27.51 105.625 27.28L106.375 25.9C106.565 26.07 106.78 26.205 107.02 26.305C107.26 26.405 107.505 26.455 107.755 26.455C108.095 26.455 108.37 26.37 108.58 26.2C108.79 26.03 108.985 25.745 109.165 25.345L109.63 24.295L109.78 24.07L112.81 16.99H114.61L110.86 25.645C110.61 26.245 110.33 26.72 110.02 27.07C109.72 27.42 109.38 27.665 109 27.805C108.63 27.945 108.22 28.015 107.77 28.015ZM109.42 25.285L105.805 16.99H107.755L110.695 23.905L109.42 25.285Z" fill="#FFBA00"/>
<path fill-rule="evenodd" clip-rule="evenodd" d="M32.6512 10.2765L18.9054 2.34036C18.2669 1.97169 17.4801 1.97169 16.8416 2.34036L3.09578 10.2765C2.45722 10.6452 2.06386 11.3265 2.06386 12.0639V27.9361C2.06386 28.6735 2.45722 29.3548 3.09578 29.7235L16.8416 37.6596C17.4801 38.0283 18.2669 38.0283 18.9054 37.6596L32.6512 29.7235C33.2898 29.3548 33.6832 28.6735 33.6832 27.9361V12.0639C33.6832 11.3265 33.2898 10.6452 32.6512 10.2765ZM19.9374 0.553008C18.6603 -0.184336 17.0868 -0.184336 15.8097 0.553008L2.06386 8.48915C0.786737 9.2265 0 10.5892 0 12.0639V27.9361C0 29.4108 0.786738 30.7735 2.06386 31.5108L15.8097 39.447C17.0868 40.1843 18.6603 40.1843 19.9374 39.447L33.6832 31.5108C34.9603 30.7735 35.747 29.4108 35.747 27.9361V12.0639C35.747 10.5892 34.9603 9.2265 33.6832 8.48915L19.9374 0.553008Z" fill="#FFBA00"/>
<path fill-rule="evenodd" clip-rule="evenodd" d="M7.60321 15.0468C7.60321 15.0468 7.60321 14.3629 8.07041 13.8793C8.07041 13.8793 8.53761 13.3957 9.19833 13.3957H26.7446C26.7446 13.3957 27.4053 13.3957 27.8725 13.8793C27.8725 13.8793 28.3397 14.3629 28.3397 15.0468V28.2554C28.3397 28.2554 28.3397 28.9393 27.8725 29.4229C27.8725 29.4229 27.4053 29.9065 26.7446 29.9065H9.19833C9.19833 29.9065 8.53761 29.9065 8.07041 29.4229C8.07041 29.4229 7.60321 28.9393 7.60321 28.2554V15.0468ZM9.19833 15.0468V28.2554H26.7446V15.0468H9.19833Z" fill="#FFBA00"/>
<path d="M13.8869 10.8189C13.1861 11.5443 13.1861 12.5701 13.1861 12.5701V14.2212C13.1861 14.6772 13.5432 15.0468 13.9837 15.0468C14.4242 15.0468 14.7812 14.6772 14.7812 14.2212V12.5701C14.7812 12.2282 15.0148 11.9864 15.0148 11.9864C15.2484 11.7446 15.5788 11.7446 15.5788 11.7446H20.3641C20.6945 11.7446 20.9281 11.9864 20.9281 11.9864C21.1617 12.2282 21.1617 12.5701 21.1617 12.5701V14.2212C21.1617 14.6772 21.5188 15.0468 21.9593 15.0468C22.3997 15.0468 22.7568 14.6772 22.7568 14.2212V12.5701C22.7568 11.5443 22.056 10.8189 22.056 10.8189C21.3552 10.0935 20.3641 10.0935 20.3641 10.0935H15.5788C14.5877 10.0935 13.8869 10.8189 13.8869 10.8189Z" fill="#FFBA00"/>
<path d="M17.1739 18.7617V24.5405C17.1739 24.9964 17.531 25.366 17.9715 25.366C18.4119 25.366 18.769 24.9964 18.769 24.5405V18.7617C18.769 18.3058 18.4119 17.9362 17.9715 17.9362C17.531 17.9362 17.1739 18.3058 17.1739 18.7617Z" fill="#FFBA00"/>
<path d="M20.7629 20.8256H15.18C14.7395 20.8256 14.3825 21.1952 14.3825 21.6511C14.3825 22.107 14.7395 22.4766 15.18 22.4766H20.7629C21.2034 22.4766 21.5605 22.107 21.5605 21.6511C21.5605 21.1952 21.2034 20.8256 20.7629 20.8256Z" fill="#FFBA00"/>
</svg>
